# Blender v2.93.5 OBJ File: 'coin.blend'
# www.blender.org
mtllib coin.mtl
v -0.000000 -0.139547 -0.843489
v -0.000000 0.139547 -0.854442
v 0.164557 -0.139547 -0.827282
v 0.166693 0.139547 -0.838024
v 0.322789 -0.139547 -0.779282
v 0.326981 0.139547 -0.789401
v 0.468617 -0.139547 -0.701335
v 0.474702 0.139547 -0.710442
v 0.596437 -0.139547 -0.596437
v 0.604181 0.139547 -0.604181
v 0.701335 -0.139547 -0.468617
v 0.710442 0.139547 -0.474702
v 0.779282 -0.139547 -0.322789
v 0.789401 0.139547 -0.326981
v 0.827282 -0.139547 -0.164557
v 0.838024 0.139547 -0.166693
v 0.843489 -0.139547 0.000000
v 0.854442 0.139547 0.000000
v 0.827282 -0.139547 0.164557
v 0.838024 0.139547 0.166693
v 0.779282 -0.139547 0.322789
v 0.789401 0.139547 0.326981
v 0.701335 -0.139547 0.468617
v 0.710442 0.139547 0.474702
v 0.596437 -0.139547 0.596437
v 0.604181 0.139547 0.604181
v 0.468617 -0.139547 0.701335
v 0.474702 0.139547 0.710442
v 0.322789 -0.139547 0.779282
v 0.326981 0.139547 0.789401
v 0.164557 -0.139547 0.827282
v 0.166693 0.139547 0.838024
v -0.000000 -0.139547 0.843489
v -0.000000 0.139547 0.854442
v -0.164556 -0.139547 0.827282
v -0.166693 0.139547 0.838024
v -0.322789 -0.139547 0.779282
v -0.326981 0.139547 0.789401
v -0.468617 -0.139547 0.701335
v -0.474702 0.139547 0.710442
v -0.596437 -0.139547 0.596437
v -0.604181 0.139547 0.604182
v -0.701335 -0.139547 0.468618
v -0.710442 0.139547 0.474702
v -0.779282 -0.139547 0.322789
v -0.789401 0.139547 0.326981
v -0.827282 -0.139547 0.164557
v -0.838024 0.139547 0.166693
v -0.843489 -0.139547 -0.000000
v -0.854442 0.139547 -0.000000
v -0.827282 -0.139547 -0.164557
v -0.838024 0.139547 -0.166693
v -0.779282 -0.139547 -0.322789
v -0.789401 0.139547 -0.326981
v -0.701336 -0.139547 -0.468617
v -0.710442 0.139547 -0.474702
v -0.596437 -0.139547 -0.596437
v -0.604182 0.139547 -0.604181
v -0.468617 -0.139547 -0.701335
v -0.474702 0.139547 -0.710442
v -0.322789 -0.139547 -0.779282
v -0.326981 0.139547 -0.789401
v -0.164556 -0.139547 -0.827282
v -0.166693 0.139547 -0.838024
v 0.195090 0.139547 -0.980785
v 0.000000 0.139547 -1.000000
v 0.382683 0.139547 -0.923880
v 0.555570 0.139547 -0.831470
v 0.707107 0.139547 -0.707107
v 0.831470 0.139547 -0.555570
v 0.923880 0.139547 -0.382683
v 0.980785 0.139547 -0.195090
v 1.000000 0.139547 0.000000
v 0.980785 0.139547 0.195090
v 0.923880 0.139547 0.382683
v 0.831470 0.139547 0.555570
v 0.707107 0.139547 0.707107
v 0.555570 0.139547 0.831470
v 0.382683 0.139547 0.923880
v 0.195090 0.139547 0.980785
v -0.000000 0.139547 1.000000
v -0.195090 0.139547 0.980785
v -0.382683 0.139547 0.923880
v -0.555570 0.139547 0.831470
v -0.707107 0.139547 0.707107
v -0.831469 0.139547 0.555570
v -0.923880 0.139547 0.382684
v -0.980785 0.139547 0.195090
v -1.000000 0.139547 -0.000000
v -0.980785 0.139547 -0.195090
v -0.923879 0.139547 -0.382684
v -0.831470 0.139547 -0.555570
v -0.707107 0.139547 -0.707107
v -0.555570 0.139547 -0.831470
v -0.382683 0.139547 -0.923880
v -0.195090 0.139547 -0.980785
v 0.166693 0.064647 -0.838024
v -0.000000 0.064647 -0.854442
v 0.326981 0.064647 -0.789401
v 0.474702 0.064647 -0.710442
v 0.604181 0.064647 -0.604181
v 0.710442 0.064647 -0.474702
v 0.789401 0.064647 -0.326981
v 0.838024 0.064647 -0.166693
v 0.854442 0.064647 0.000000
v 0.838024 0.064647 0.166693
v 0.789401 0.064647 0.326981
v 0.710442 0.064647 0.474702
v 0.604181 0.064647 0.604181
v 0.474702 0.064647 0.710442
v 0.326981 0.064647 0.789401
v 0.166693 0.064647 0.838024
v -0.000000 0.064647 0.854442
v -0.166693 0.064647 0.838024
v -0.326981 0.064647 0.789401
v -0.474702 0.064647 0.710442
v -0.604181 0.064647 0.604182
v -0.710442 0.064647 0.474702
v -0.789401 0.064647 0.326981
v -0.838024 0.064647 0.166693
v -0.854442 0.064647 -0.000000
v -0.838024 0.064647 -0.166693
v -0.789401 0.064647 -0.326981
v -0.710442 0.064647 -0.474702
v -0.604182 0.064647 -0.604181
v -0.474702 0.064647 -0.710442
v -0.326981 0.064647 -0.789401
v -0.166693 0.064647 -0.838024
v 0.000000 -0.139547 -1.000000
v 0.195090 -0.139547 -0.980785
v 0.382683 -0.139547 -0.923880
v 0.555570 -0.139547 -0.831470
v 0.707107 -0.139547 -0.707107
v 0.831470 -0.139547 -0.555570
v 0.923880 -0.139547 -0.382683
v 0.980785 -0.139547 -0.195090
v 1.000000 -0.139547 0.000000
v 0.980785 -0.139547 0.195090
v 0.923880 -0.139547 0.382683
v 0.831470 -0.139547 0.555570
v 0.707107 -0.139547 0.707107
v 0.555570 -0.139547 0.831470
v 0.382683 -0.139547 0.923880
v 0.195090 -0.139547 0.980785
v -0.000000 -0.139547 1.000000
v -0.195090 -0.139547 0.980785
v -0.382683 -0.139547 0.923880
v -0.555570 -0.139547 0.831470
v -0.707107 -0.139547 0.707107
v -0.831469 -0.139547 0.555570
v -0.923880 -0.139547 0.382684
v -0.980785 -0.139547 0.195090
v -1.000000 -0.139547 -0.000000
v -0.980785 -0.139547 -0.195090
v -0.923879 -0.139547 -0.382684
v -0.831470 -0.139547 -0.555570
v -0.707107 -0.139547 -0.707107
v -0.555570 -0.139547 -0.831470
v -0.382683 -0.139547 -0.923880
v -0.195090 -0.139547 -0.980785
v -0.000000 -0.072108 -0.843489
v 0.164557 -0.072108 -0.827282
v 0.322789 -0.072108 -0.779282
v 0.468617 -0.072108 -0.701335
v 0.596437 -0.072108 -0.596437
v 0.701335 -0.072108 -0.468617
v 0.779282 -0.072108 -0.322789
v 0.827282 -0.072108 -0.164557
v 0.843489 -0.072108 0.000000
v 0.827282 -0.072108 0.164557
v 0.779282 -0.072108 0.322789
v 0.701335 -0.072108 0.468617
v 0.596437 -0.072108 0.596437
v 0.468617 -0.072108 0.701335
v 0.322789 -0.072108 0.779282
v 0.164557 -0.072108 0.827282
v -0.000000 -0.072108 0.843489
v -0.164556 -0.072108 0.827282
v -0.322789 -0.072108 0.779282
v -0.468617 -0.072108 0.701335
v -0.596437 -0.072108 0.596437
v -0.701335 -0.072108 0.468618
v -0.779282 -0.072108 0.322789
v -0.827282 -0.072108 0.164557
v -0.843489 -0.072108 -0.000000
v -0.827282 -0.072108 -0.164557
v -0.779282 -0.072108 -0.322789
v -0.701336 -0.072108 -0.468617
v -0.596437 -0.072108 -0.596437
v -0.468617 -0.072108 -0.701335
v -0.322789 -0.072108 -0.779282
v -0.164556 -0.072108 -0.827282
vt 1.000000 0.500000
vt 1.000000 1.000000
vt 0.968750 1.000000
vt 0.968750 0.500000
vt 0.937500 1.000000
vt 0.937500 0.500000
vt 0.906250 1.000000
vt 0.906250 0.500000
vt 0.875000 1.000000
vt 0.875000 0.500000
vt 0.843750 1.000000
vt 0.843750 0.500000
vt 0.812500 1.000000
vt 0.812500 0.500000
vt 0.781250 1.000000
vt 0.781250 0.500000
vt 0.750000 1.000000
vt 0.750000 0.500000
vt 0.718750 1.000000
vt 0.718750 0.500000
vt 0.687500 1.000000
vt 0.687500 0.500000
vt 0.656250 1.000000
vt 0.656250 0.500000
vt 0.625000 1.000000
vt 0.625000 0.500000
vt 0.593750 1.000000
vt 0.593750 0.500000
vt 0.562500 1.000000
vt 0.562500 0.500000
vt 0.531250 1.000000
vt 0.531250 0.500000
vt 0.500000 1.000000
vt 0.500000 0.500000
vt 0.468750 1.000000
vt 0.468750 0.500000
vt 0.437500 1.000000
vt 0.437500 0.500000
vt 0.406250 1.000000
vt 0.406250 0.500000
vt 0.375000 1.000000
vt 0.375000 0.500000
vt 0.343750 1.000000
vt 0.343750 0.500000
vt 0.312500 1.000000
vt 0.312500 0.500000
vt 0.281250 1.000000
vt 0.281250 0.500000
vt 0.250000 1.000000
vt 0.250000 0.500000
vt 0.218750 1.000000
vt 0.218750 0.500000
vt 0.187500 1.000000
vt 0.187500 0.500000
vt 0.156250 1.000000
vt 0.156250 0.500000
vt 0.125000 1.000000
vt 0.125000 0.500000
vt 0.093750 1.000000
vt 0.093750 0.500000
vt 0.062500 1.000000
vt 0.062500 0.500000
vt 0.171525 0.060544
vt 0.209994 0.048874
vt 0.209994 0.048874
vt 0.171525 0.060544
vt 0.031250 1.000000
vt 0.031250 0.500000
vt 0.000000 1.000000
vt 0.000000 0.500000
vt 0.937027 0.172531
vt 0.918320 0.137532
vt 0.918320 0.137532
vt 0.937027 0.172531
vt 0.250000 0.455066
vt 0.290006 0.451126
vt 0.296822 0.485388
vt 0.250000 0.490000
vt 0.328475 0.439456
vt 0.341844 0.471731
vt 0.363929 0.420506
vt 0.383337 0.449553
vt 0.395004 0.395004
vt 0.419706 0.419706
vt 0.420506 0.363929
vt 0.449553 0.383337
vt 0.439456 0.328475
vt 0.471731 0.341844
vt 0.451126 0.290006
vt 0.485388 0.296822
vt 0.455066 0.250000
vt 0.490000 0.250000
vt 0.451126 0.209994
vt 0.485388 0.203178
vt 0.439456 0.171525
vt 0.471731 0.158156
vt 0.420506 0.136071
vt 0.449553 0.116663
vt 0.395004 0.104996
vt 0.419706 0.080294
vt 0.363929 0.079494
vt 0.383337 0.050447
vt 0.328475 0.060544
vt 0.341844 0.028269
vt 0.290006 0.048874
vt 0.296822 0.014612
vt 0.250000 0.044934
vt 0.250000 0.010000
vt 0.203178 0.014612
vt 0.158156 0.028269
vt 0.136071 0.079494
vt 0.116663 0.050447
vt 0.104996 0.104996
vt 0.080294 0.080294
vt 0.079494 0.136071
vt 0.050447 0.116663
vt 0.060544 0.171525
vt 0.028269 0.158156
vt 0.048874 0.209994
vt 0.014612 0.203178
vt 0.044934 0.250000
vt 0.010000 0.250000
vt 0.048874 0.290006
vt 0.014612 0.296822
vt 0.060544 0.328475
vt 0.028269 0.341844
vt 0.079494 0.363928
vt 0.050447 0.383337
vt 0.104996 0.395004
vt 0.080294 0.419706
vt 0.136071 0.420506
vt 0.116663 0.449553
vt 0.171525 0.439456
vt 0.158156 0.471731
vt 0.209994 0.451126
vt 0.203178 0.485388
vt 0.290006 0.451126
vt 0.250000 0.455066
vt 0.209994 0.451126
vt 0.171525 0.439456
vt 0.136071 0.420506
vt 0.104996 0.395004
vt 0.079494 0.363928
vt 0.060544 0.328475
vt 0.048874 0.290006
vt 0.044934 0.250000
vt 0.048874 0.209994
vt 0.060544 0.171525
vt 0.079494 0.136071
vt 0.104996 0.104996
vt 0.136071 0.079494
vt 0.250000 0.044934
vt 0.290006 0.048874
vt 0.328475 0.060544
vt 0.363929 0.079494
vt 0.395004 0.104996
vt 0.420506 0.136071
vt 0.439456 0.171525
vt 0.451126 0.209994
vt 0.455066 0.250000
vt 0.451126 0.290006
vt 0.439456 0.328475
vt 0.420506 0.363929
vt 0.395004 0.395004
vt 0.363929 0.420506
vt 0.328475 0.439456
vt 0.789494 0.448548
vt 0.750000 0.452437
vt 0.750000 0.490000
vt 0.796822 0.485388
vt 0.827469 0.437028
vt 0.841844 0.471731
vt 0.862468 0.418320
vt 0.883337 0.449553
vt 0.893144 0.393145
vt 0.919706 0.419706
vt 0.918320 0.362468
vt 0.949553 0.383337
vt 0.937027 0.327469
vt 0.971731 0.341844
vt 0.948547 0.289494
vt 0.985388 0.296822
vt 0.952437 0.250000
vt 0.990000 0.250000
vt 0.948547 0.210506
vt 0.985388 0.203178
vt 0.971731 0.158156
vt 0.949553 0.116663
vt 0.893145 0.106855
vt 0.919706 0.080294
vt 0.862468 0.081679
vt 0.883337 0.050447
vt 0.827469 0.062972
vt 0.841844 0.028269
vt 0.789494 0.051452
vt 0.796822 0.014612
vt 0.750000 0.047563
vt 0.750000 0.010000
vt 0.710506 0.051452
vt 0.703178 0.014612
vt 0.672531 0.062972
vt 0.658156 0.028269
vt 0.637532 0.081680
vt 0.616663 0.050447
vt 0.606855 0.106855
vt 0.580294 0.080294
vt 0.581680 0.137532
vt 0.550447 0.116663
vt 0.562972 0.172531
vt 0.528269 0.158156
vt 0.551452 0.210506
vt 0.514612 0.203178
vt 0.547563 0.250000
vt 0.510000 0.250000
vt 0.551452 0.289494
vt 0.514612 0.296822
vt 0.562972 0.327469
vt 0.528269 0.341844
vt 0.581680 0.362468
vt 0.550447 0.383337
vt 0.606855 0.393145
vt 0.580294 0.419706
vt 0.637532 0.418321
vt 0.616663 0.449553
vt 0.672531 0.437028
vt 0.658156 0.471731
vt 0.710506 0.448548
vt 0.703178 0.485388
vt 0.750000 0.452437
vt 0.789494 0.448548
vt 0.827469 0.437028
vt 0.862468 0.418320
vt 0.893144 0.393145
vt 0.918320 0.362468
vt 0.937027 0.327469
vt 0.948547 0.289494
vt 0.952437 0.250000
vt 0.948547 0.210506
vt 0.893145 0.106855
vt 0.862468 0.081679
vt 0.827469 0.062972
vt 0.789494 0.051452
vt 0.750000 0.047563
vt 0.710506 0.051452
vt 0.672531 0.062972
vt 0.637532 0.081680
vt 0.606855 0.106855
vt 0.581680 0.137532
vt 0.562972 0.172531
vt 0.551452 0.210506
vt 0.547563 0.250000
vt 0.551452 0.289494
vt 0.562972 0.327469
vt 0.581680 0.362468
vt 0.606855 0.393145
vt 0.637532 0.418321
vt 0.672531 0.437028
vt 0.710506 0.448548
vn 0.0980 0.0000 -0.9952
vn 0.2903 0.0000 -0.9569
vn 0.4714 0.0000 -0.8819
vn 0.6344 0.0000 -0.7730
vn 0.7730 0.0000 -0.6344
vn 0.8819 0.0000 -0.4714
vn 0.9569 0.0000 -0.2903
vn 0.9952 0.0000 -0.0980
vn 0.9952 0.0000 0.0980
vn 0.9569 0.0000 0.2903
vn 0.8819 0.0000 0.4714
vn 0.7730 0.0000 0.6344
vn 0.6344 0.0000 0.7730
vn 0.4714 0.0000 0.8819
vn 0.2903 0.0000 0.9569
vn 0.0980 0.0000 0.9952
vn -0.0980 0.0000 0.9952
vn -0.2903 0.0000 0.9569
vn -0.4714 0.0000 0.8819
vn -0.6344 0.0000 0.7730
vn -0.7730 0.0000 0.6344
vn -0.8819 0.0000 0.4714
vn -0.9569 0.0000 0.2903
vn -0.9952 0.0000 0.0980
vn -0.9952 0.0000 -0.0980
vn -0.9569 0.0000 -0.2903
vn -0.8819 0.0000 -0.4714
vn -0.7730 0.0000 -0.6344
vn -0.6344 0.0000 -0.7730
vn -0.4714 0.0000 -0.8819
vn -0.2903 0.0000 -0.9569
vn -0.0980 0.0000 -0.9952
vn 0.0000 1.0000 0.0000
vn 0.0000 -1.0000 0.0000
usemtl None
s off
f 129/1/1 66/2/1 65/3/1 130/4/1
f 130/4/2 65/3/2 67/5/2 131/6/2
f 131/6/3 67/5/3 68/7/3 132/8/3
f 132/8/4 68/7/4 69/9/4 133/10/4
f 133/10/5 69/9/5 70/11/5 134/12/5
f 134/12/6 70/11/6 71/13/6 135/14/6
f 135/14/7 71/13/7 72/15/7 136/16/7
f 136/16/8 72/15/8 73/17/8 137/18/8
f 137/18/9 73/17/9 74/19/9 138/20/9
f 138/20/10 74/19/10 75/21/10 139/22/10
f 139/22/11 75/21/11 76/23/11 140/24/11
f 140/24/12 76/23/12 77/25/12 141/26/12
f 141/26/13 77/25/13 78/27/13 142/28/13
f 142/28/14 78/27/14 79/29/14 143/30/14
f 143/30/15 79/29/15 80/31/15 144/32/15
f 144/32/16 80/31/16 81/33/16 145/34/16
f 145/34/17 81/33/17 82/35/17 146/36/17
f 146/36/18 82/35/18 83/37/18 147/38/18
f 147/38/19 83/37/19 84/39/19 148/40/19
f 148/40/20 84/39/20 85/41/20 149/42/20
f 149/42/21 85/41/21 86/43/21 150/44/21
f 150/44/22 86/43/22 87/45/22 151/46/22
f 151/46/23 87/45/23 88/47/23 152/48/23
f 152/48/24 88/47/24 89/49/24 153/50/24
f 153/50/25 89/49/25 90/51/25 154/52/25
f 154/52/26 90/51/26 91/53/26 155/54/26
f 155/54/27 91/53/27 92/55/27 156/56/27
f 156/56/28 92/55/28 93/57/28 157/58/28
f 157/58/29 93/57/29 94/59/29 158/60/29
f 158/60/30 94/59/30 95/61/30 159/62/30
f 38/63/2 36/64/2 114/65/2 115/66/2
f 159/62/31 95/61/31 96/67/31 160/68/31
f 160/68/32 96/67/32 66/69/32 129/70/32
f 21/71/27 23/72/27 172/73/27 171/74/27
f 2/75/33 4/76/33 65/77/33 66/78/33
f 4/76/33 6/79/33 67/80/33 65/77/33
f 6/79/33 8/81/33 68/82/33 67/80/33
f 8/81/33 10/83/33 69/84/33 68/82/33
f 10/83/33 12/85/33 70/86/33 69/84/33
f 12/85/33 14/87/33 71/88/33 70/86/33
f 14/87/33 16/89/33 72/90/33 71/88/33
f 16/89/33 18/91/33 73/92/33 72/90/33
f 18/91/33 20/93/33 74/94/33 73/92/33
f 20/93/33 22/95/33 75/96/33 74/94/33
f 22/95/33 24/97/33 76/98/33 75/96/33
f 24/97/33 26/99/33 77/100/33 76/98/33
f 26/99/33 28/101/33 78/102/33 77/100/33
f 28/101/33 30/103/33 79/104/33 78/102/33
f 30/103/33 32/105/33 80/106/33 79/104/33
f 32/105/33 34/107/33 81/108/33 80/106/33
f 34/107/33 36/64/33 82/109/33 81/108/33
f 36/64/33 38/63/33 83/110/33 82/109/33
f 38/63/33 40/111/33 84/112/33 83/110/33
f 40/111/33 42/113/33 85/114/33 84/112/33
f 42/113/33 44/115/33 86/116/33 85/114/33
f 44/115/33 46/117/33 87/118/33 86/116/33
f 46/117/33 48/119/33 88/120/33 87/118/33
f 48/119/33 50/121/33 89/122/33 88/120/33
f 50/121/33 52/123/33 90/124/33 89/122/33
f 52/123/33 54/125/33 91/126/33 90/124/33
f 54/125/33 56/127/33 92/128/33 91/126/33
f 56/127/33 58/129/33 93/130/33 92/128/33
f 58/129/33 60/131/33 94/132/33 93/130/33
f 60/131/33 62/133/33 95/134/33 94/132/33
f 62/133/33 64/135/33 96/136/33 95/134/33
f 64/135/33 2/75/33 66/78/33 96/136/33
f 97/137/33 98/138/33 128/139/33 127/140/33 126/141/33 125/142/33 124/143/33 123/144/33 122/145/33 121/146/33 120/147/33 119/148/33 118/149/33 117/150/33 116/151/33 115/66/33 114/65/33 113/152/33 112/153/33 111/154/33 110/155/33 109/156/33 108/157/33 107/158/33 106/159/33 105/160/33 104/161/33 103/162/33 102/163/33 101/164/33 100/165/33 99/166/33
f 12/85/21 10/83/21 101/164/21 102/163/21
f 2/75/16 64/135/16 128/139/16 98/138/16
f 40/111/3 38/63/3 115/66/3 116/151/3
f 14/87/22 12/85/22 102/163/22 103/162/22
f 42/113/4 40/111/4 116/151/4 117/150/4
f 16/89/23 14/87/23 103/162/23 104/161/23
f 44/115/5 42/113/5 117/150/5 118/149/5
f 18/91/24 16/89/24 104/161/24 105/160/24
f 46/117/6 44/115/6 118/149/6 119/148/6
f 20/93/25 18/91/25 105/160/25 106/159/25
f 48/119/7 46/117/7 119/148/7 120/147/7
f 22/95/26 20/93/26 106/159/26 107/158/26
f 50/121/8 48/119/8 120/147/8 121/146/8
f 24/97/27 22/95/27 107/158/27 108/157/27
f 52/123/9 50/121/9 121/146/9 122/145/9
f 26/99/28 24/97/28 108/157/28 109/156/28
f 54/125/10 52/123/10 122/145/10 123/144/10
f 28/101/29 26/99/29 109/156/29 110/155/29
f 56/127/11 54/125/11 123/144/11 124/143/11
f 30/103/30 28/101/30 110/155/30 111/154/30
f 4/76/17 2/75/17 98/138/17 97/137/17
f 58/129/12 56/127/12 124/143/12 125/142/12
f 32/105/31 30/103/31 111/154/31 112/153/31
f 6/79/18 4/76/18 97/137/18 99/166/18
f 60/131/13 58/129/13 125/142/13 126/141/13
f 34/107/32 32/105/32 112/153/32 113/152/32
f 8/81/19 6/79/19 99/166/19 100/165/19
f 62/133/14 60/131/14 126/141/14 127/140/14
f 36/64/1 34/107/1 113/152/1 114/65/1
f 10/83/20 8/81/20 100/165/20 101/164/20
f 64/135/15 62/133/15 127/140/15 128/139/15
f 3/167/34 1/168/34 129/169/34 130/170/34
f 5/171/34 3/167/34 130/170/34 131/172/34
f 7/173/34 5/171/34 131/172/34 132/174/34
f 9/175/34 7/173/34 132/174/34 133/176/34
f 11/177/34 9/175/34 133/176/34 134/178/34
f 13/179/34 11/177/34 134/178/34 135/180/34
f 15/181/34 13/179/34 135/180/34 136/182/34
f 17/183/34 15/181/34 136/182/34 137/184/34
f 19/185/34 17/183/34 137/184/34 138/186/34
f 21/71/34 19/185/34 138/186/34 139/187/34
f 23/72/34 21/71/34 139/187/34 140/188/34
f 25/189/34 23/72/34 140/188/34 141/190/34
f 27/191/34 25/189/34 141/190/34 142/192/34
f 29/193/34 27/191/34 142/192/34 143/194/34
f 31/195/34 29/193/34 143/194/34 144/196/34
f 33/197/34 31/195/34 144/196/34 145/198/34
f 35/199/34 33/197/34 145/198/34 146/200/34
f 37/201/34 35/199/34 146/200/34 147/202/34
f 39/203/34 37/201/34 147/202/34 148/204/34
f 41/205/34 39/203/34 148/204/34 149/206/34
f 43/207/34 41/205/34 149/206/34 150/208/34
f 45/209/34 43/207/34 150/208/34 151/210/34
f 47/211/34 45/209/34 151/210/34 152/212/34
f 49/213/34 47/211/34 152/212/34 153/214/34
f 51/215/34 49/213/34 153/214/34 154/216/34
f 53/217/34 51/215/34 154/216/34 155/218/34
f 55/219/34 53/217/34 155/218/34 156/220/34
f 57/221/34 55/219/34 156/220/34 157/222/34
f 59/223/34 57/221/34 157/222/34 158/224/34
f 61/225/34 59/223/34 158/224/34 159/226/34
f 63/227/34 61/225/34 159/226/34 160/228/34
f 1/168/34 63/227/34 160/228/34 129/169/34
f 161/229/34 162/230/34 163/231/34 164/232/34 165/233/34 166/234/34 167/235/34 168/236/34 169/237/34 170/238/34 171/74/34 172/73/34 173/239/34 174/240/34 175/241/34 176/242/34 177/243/34 178/244/34 179/245/34 180/246/34 181/247/34 182/248/34 183/249/34 184/250/34 185/251/34 186/252/34 187/253/34 188/254/34 189/255/34 190/256/34 191/257/34 192/258/34
f 49/213/9 51/215/9 186/252/9 185/251/9
f 23/72/28 25/189/28 173/239/28 172/73/28
f 51/215/10 53/217/10 187/253/10 186/252/10
f 25/189/29 27/191/29 174/240/29 173/239/29
f 53/217/11 55/219/11 188/254/11 187/253/11
f 27/191/30 29/193/30 175/241/30 174/240/30
f 1/168/17 3/167/17 162/230/17 161/229/17
f 55/219/12 57/221/12 189/255/12 188/254/12
f 29/193/31 31/195/31 176/242/31 175/241/31
f 3/167/18 5/171/18 163/231/18 162/230/18
f 57/221/13 59/223/13 190/256/13 189/255/13
f 31/195/32 33/197/32 177/243/32 176/242/32
f 5/171/19 7/173/19 164/232/19 163/231/19
f 59/223/14 61/225/14 191/257/14 190/256/14
f 33/197/1 35/199/1 178/244/1 177/243/1
f 7/173/20 9/175/20 165/233/20 164/232/20
f 61/225/15 63/227/15 192/258/15 191/257/15
f 35/199/2 37/201/2 179/245/2 178/244/2
f 9/175/21 11/177/21 166/234/21 165/233/21
f 63/227/16 1/168/16 161/229/16 192/258/16
f 37/201/3 39/203/3 180/246/3 179/245/3
f 11/177/22 13/179/22 167/235/22 166/234/22
f 39/203/4 41/205/4 181/247/4 180/246/4
f 13/179/23 15/181/23 168/236/23 167/235/23
f 41/205/5 43/207/5 182/248/5 181/247/5
f 15/181/24 17/183/24 169/237/24 168/236/24
f 43/207/6 45/209/6 183/249/6 182/248/6
f 17/183/25 19/185/25 170/238/25 169/237/25
f 45/209/7 47/211/7 184/250/7 183/249/7
f 19/185/26 21/71/26 171/74/26 170/238/26
f 47/211/8 49/213/8 185/251/8 184/250/8
