# Blender v2.93.5 OBJ File: ''
# www.blender.org
mtllib weirdCoin.mtl
o Cube_Cube.001
v -1.000000 0.073218 1.000000
v -1.000000 -0.073218 1.000000
v -1.000000 0.073218 -1.000000
v -1.000000 -0.073218 -1.000000
v 1.000000 0.073218 1.000000
v 1.000000 -0.073218 1.000000
v 1.000000 0.073218 -1.000000
v 1.000000 -0.073218 -1.000000
v -0.099684 0.073218 -1.410696
v -0.099684 -0.073218 -1.410696
v 1.410696 0.073218 -0.099684
v 1.410696 -0.073218 -0.099684
v -1.410696 0.073218 0.099684
v -1.410696 -0.073218 0.099684
v 0.099684 0.073218 1.410696
v 0.099684 -0.073218 1.410696
v -0.518489 0.073218 1.315739
v -0.518489 -0.073218 1.315739
v -1.315739 0.073218 -0.518489
v -1.315739 -0.073218 -0.518489
v 1.315739 0.073218 0.518489
v 1.315739 -0.073218 0.518489
v 0.518489 0.073218 -1.315739
v 0.518489 -0.073218 -1.315739
v 0.718873 0.073218 1.217876
v 0.718873 -0.073218 1.217876
v -1.217876 0.073218 0.718873
v -1.217876 -0.073218 0.718873
v 1.217876 0.073218 -0.718873
v 1.217876 -0.073218 -0.718873
v -0.718873 0.073218 -1.217876
v -0.718873 -0.073218 -1.217876
vt 0.375000 0.000000
vt 0.375000 0.250000
vt 0.625000 0.250000
vt 0.625000 0.000000
vt 0.375000 0.500000
vt 0.625000 0.500000
vt 0.375000 0.750000
vt 0.625000 0.750000
vt 0.375000 1.000000
vt 0.625000 1.000000
vt 0.125000 0.500000
vt 0.125000 0.750000
vt 0.875000 0.750000
vt 0.875000 0.500000
vt 0.375000 0.000000
vt 0.375000 0.250000
vt 0.625000 0.250000
vt 0.625000 0.000000
vt 0.375000 0.500000
vt 0.625000 0.500000
vt 0.375000 0.750000
vt 0.625000 0.750000
vt 0.375000 1.000000
vt 0.625000 1.000000
vt 0.125000 0.500000
vt 0.125000 0.750000
vt 0.875000 0.750000
vt 0.875000 0.500000
vt 0.375000 0.000000
vt 0.375000 0.250000
vt 0.625000 0.250000
vt 0.625000 0.000000
vt 0.375000 0.500000
vt 0.625000 0.500000
vt 0.375000 0.750000
vt 0.625000 0.750000
vt 0.375000 1.000000
vt 0.625000 1.000000
vt 0.125000 0.500000
vt 0.125000 0.750000
vt 0.875000 0.750000
vt 0.875000 0.500000
vt 0.375000 0.000000
vt 0.375000 0.250000
vt 0.625000 0.250000
vt 0.625000 0.000000
vt 0.375000 0.500000
vt 0.625000 0.500000
vt 0.375000 0.750000
vt 0.625000 0.750000
vt 0.375000 1.000000
vt 0.625000 1.000000
vt 0.125000 0.500000
vt 0.125000 0.750000
vt 0.875000 0.750000
vt 0.875000 0.500000
vn -1.0000 0.0000 0.0000
vn 0.0000 0.0000 -1.0000
vn 1.0000 0.0000 0.0000
vn 0.0000 0.0000 1.0000
vn 0.0000 1.0000 0.0000
vn 0.0000 -1.0000 0.0000
vn 0.6555 0.0000 -0.7552
vn 0.7552 0.0000 0.6555
vn -0.6555 0.0000 0.7552
vn -0.7552 0.0000 -0.6555
vn -0.9171 0.0000 0.3986
vn -0.3986 0.0000 -0.9171
vn 0.9171 0.0000 -0.3986
vn 0.3986 0.0000 0.9171
vn -0.2495 0.0000 0.9684
vn -0.9684 0.0000 -0.2495
vn 0.2495 0.0000 -0.9684
vn 0.9684 0.0000 0.2495
usemtl None
s off
f 1/1/1 3/2/1 4/3/1 2/4/1
f 3/2/2 7/5/2 8/6/2 4/3/2
f 7/5/3 5/7/3 6/8/3 8/6/3
f 5/7/4 1/9/4 2/10/4 6/8/4
f 3/11/5 1/12/5 5/7/5 7/5/5
f 8/6/6 6/8/6 2/13/6 4/14/6
f 9/15/7 11/16/7 12/17/7 10/18/7
f 11/16/8 15/19/8 16/20/8 12/17/8
f 15/19/9 13/21/9 14/22/9 16/20/9
f 13/21/10 9/23/10 10/24/10 14/22/10
f 11/25/5 9/26/5 13/21/5 15/19/5
f 16/20/6 14/22/6 10/27/6 12/28/6
f 17/29/11 19/30/11 20/31/11 18/32/11
f 19/30/12 23/33/12 24/34/12 20/31/12
f 23/33/13 21/35/13 22/36/13 24/34/13
f 21/35/14 17/37/14 18/38/14 22/36/14
f 19/39/5 17/40/5 21/35/5 23/33/5
f 24/34/6 22/36/6 18/41/6 20/42/6
f 25/43/15 27/44/15 28/45/15 26/46/15
f 27/44/16 31/47/16 32/48/16 28/45/16
f 31/47/17 29/49/17 30/50/17 32/48/17
f 29/49/18 25/51/18 26/52/18 30/50/18
f 27/53/5 25/54/5 29/49/5 31/47/5
f 32/48/6 30/50/6 26/55/6 28/56/6
